<?xml version="1.0" encoding="iso-8859-1"?>
<!-- Generator: Adobe Illustrator 22.1.0, SVG Export Plug-In . SVG Version: 6.00 Build 0)  -->
<svg version="1.1" id="Layer_1" xmlns="http://www.w3.org/2000/svg" xmlns:xlink="http://www.w3.org/1999/xlink" x="0px" y="0px"
	 viewBox="0 0 2048 2048" style="enable-background:new 0 0 2048 2048;" xml:space="preserve">
<path d="M1199.915,1162.219v-124.064v0h-179.774V760.74l56.828,0.62c8.573,0.094,15.473,7.07,15.473,15.643v183.09h0
	c56.935,0,103.091-46.155,103.091-103.09l0.001-95.68c0.001-68.854-55.816-124.672-124.67-124.672H896.049v401.503h0
	c-26.504,0-47.984,21.496-47.964,48l0.17,229.568c0.05,52.828,42.89,95.627,95.719,95.627h189.337
	c0-68.585-55.502-124.083-124.091-124.083h-20.073c-9.925,0-17.979-8.033-18.003-17.958l-0.268-107.08L1199.915,1162.219z"/>
</svg>
