<?xml version="1.0" encoding="iso-8859-1"?>
<!-- Generator: Adobe Illustrator 22.1.0, SVG Export Plug-In . SVG Version: 6.00 Build 0)  -->
<svg version="1.1" id="Layer_1" xmlns="http://www.w3.org/2000/svg" xmlns:xlink="http://www.w3.org/1999/xlink" x="0px" y="0px"
	 viewBox="0 0 2048 2048" style="enable-background:new 0 0 2048 2048;" xml:space="preserve">
<path d="M1143.09,1287.266c0,68.529-55.554,124.083-124.083,124.083h-61.36c-52.828,0-95.668-42.799-95.719-95.627l-0.207-679.072
	h200.764c68.369,0,123.792,55.424,123.792,123.792v70.415c0,68.393-55.699,123.702-124.091,123.22l0,0V781.692
	c0-11.572-9.381-20.952-20.952-20.952h-55.422v277.414h200.465c0,68.52-55.545,124.067-124.065,124.07l-77.664,0.004l0.268,107.08
	c0.025,9.925,8.079,17.958,18.004,17.958H1143.09z"/>
</svg>
