<?xml version="1.0" encoding="iso-8859-1"?>
<!-- Generator: Adobe Illustrator 22.1.0, SVG Export Plug-In . SVG Version: 6.00 Build 0)  -->
<svg version="1.1" id="Layer_1" xmlns="http://www.w3.org/2000/svg" xmlns:xlink="http://www.w3.org/1999/xlink" x="0px" y="0px"
	 viewBox="0 0 2048 2048" style="enable-background:new 0 0 2048 2048;" xml:space="preserve">
<path style="stroke:#3953A4;stroke-width:0.7087;stroke-linecap:round;stroke-linejoin:round;stroke-miterlimit:10;" d="
	M1023.369,1053.487l184.292,230.527c42.182,52.232,32.185,129.372-22.282,168.625c-1.636,1.179-2.574,1.787-2.652,1.692
	l-327.473-400.844l-19.201-23.509c-34.37-42.079-4.43-105.191,49.902-105.191h127.639l-164.79-201.72l-19.208-23.51
	c-34.375-42.074-4.439-105.19,49.892-105.19h203.136c35.52,0,67.71,14.4,90.99,37.71c23.31,23.28,37.71,55.44,37.71,90.99h-191.405
	c-1.966,0-3.049,2.284-1.805,3.806l187.395,235.557c29.251,36.769,3.068,91.057-43.917,91.057H1023.369z"/>
</svg>
