<?xml version="1.0" encoding="iso-8859-1"?>
<!-- Generator: Adobe Illustrator 22.1.0, SVG Export Plug-In . SVG Version: 6.00 Build 0)  -->
<svg version="1.1" id="Layer_1" xmlns="http://www.w3.org/2000/svg" xmlns:xlink="http://www.w3.org/1999/xlink" x="0px" y="0px"
	 viewBox="0 0 2048 2048" style="enable-background:new 0 0 2048 2048;" xml:space="preserve">
<path d="M1066.455,1055.847c-11.026,9.729-60.319,49.293-79.776,49.293c-19.457,0-23.785-10.227-23.785-10.227l30.271-29.986
	c-16.863-9.729-34.375-31.132-34.375-60.967c0-24.647,28.538-61.099,65.56-61.099c49.994,0,64.862,44.884,64.862,64.862
	C1089.211,1031.849,1077.481,1046.117,1066.455,1055.847z M1024.513,974.989c-17.552,0-31.781,14.228-31.781,31.781
	c0,17.552,14.229,31.781,31.781,31.781c17.552,0,31.781-14.229,31.781-31.781C1056.293,989.218,1042.065,974.989,1024.513,974.989z"
	/>
</svg>
