<?xml version="1.0" encoding="iso-8859-1"?>
<!-- Generator: Adobe Illustrator 22.1.0, SVG Export Plug-In . SVG Version: 6.00 Build 0)  -->
<svg version="1.1" id="Layer_1" xmlns="http://www.w3.org/2000/svg" xmlns:xlink="http://www.w3.org/1999/xlink" x="0px" y="0px"
	 viewBox="0 0 2048 2048" style="enable-background:new 0 0 2048 2048;" xml:space="preserve">
<path d="M995.311,1075.839c-25.335,0-39.186,20.502-39.186,45.838l87.83-1.211l2.092-0.001c25.311-0.001,45.828-20.52,45.829-45.831
	l0,0h-39.697c-20.289,0-34.721-22.21-34.721-57.856l0.368-44.619h20.473c4.274,0,7.74,3.465,7.74,7.74v63.678l0,0
	c25.263,0.178,45.838-20.253,45.838-45.517V972.05c0-25.255-20.473-45.728-45.728-45.728h-28.322h-45.838l0.076,110.404
	C972.063,1046.145,976.481,1065.538,995.311,1075.839z"/>
</svg>
