<?xml version="1.0" encoding="iso-8859-1"?>
<!-- Generator: Adobe Illustrator 22.1.0, SVG Export Plug-In . SVG Version: 6.00 Build 0)  -->
<svg version="1.1" id="Layer_1" xmlns="http://www.w3.org/2000/svg" xmlns:xlink="http://www.w3.org/1999/xlink" x="0px" y="0px"
	 viewBox="0 0 2048 2048" style="enable-background:new 0 0 2048 2048;" xml:space="preserve">
<path d="M946.334,1164.337c-68.585,0-106.083,55.502-106.083,124.091l237.769-3.279l5.664-0.004
	c68.52-0.003,124.065-55.55,124.065-124.07v0h-107.465c-54.926,0-93.996-60.125-93.996-156.625l0.996-120.789h55.422
	c11.572,0,20.952,9.381,20.952,20.952V1077h0c68.392,0.482,124.091-54.827,124.091-123.22v-70.415
	c0-68.369-55.424-123.792-123.792-123.792h-76.673H883.193l0.207,298.88C883.4,1083.951,895.358,1136.451,946.334,1164.337z"/>
</svg>
