<?xml version="1.0" encoding="iso-8859-1"?>
<!-- Generator: Adobe Illustrator 22.1.0, SVG Export Plug-In . SVG Version: 6.00 Build 0)  -->
<svg version="1.1" id="Layer_1" xmlns="http://www.w3.org/2000/svg" xmlns:xlink="http://www.w3.org/1999/xlink" x="0px" y="0px"
	 viewBox="0 0 2048 2048" style="enable-background:new 0 0 2048 2048;" xml:space="preserve">
<path d="M1185.828,1162.219l0.002-525.568h-124.091h-76.673c-68.369,0-123.792,55.424-123.792,123.792v194.509
	c68.589,0,124.091-55.498,124.091-124.083v-49.177c0-11.572,9.381-20.952,20.952-20.952h55.422v277.414H861.273l0.206,277.568
	c0.05,52.828,42.89,95.627,95.719,95.627h189.337c0-68.585-55.502-124.083-124.091-124.083h-20.073
	c-9.925,0-17.979-8.033-18.003-17.958l-0.268-107.08L1185.828,1162.219z"/>
<circle cx="1124.681" cy="1242.153" r="62.046"/>
</svg>
