<?xml version="1.0" encoding="iso-8859-1"?>
<!-- Generator: Adobe Illustrator 22.1.0, SVG Export Plug-In . SVG Version: 6.00 Build 0)  -->
<svg version="1.1" id="Layer_1" xmlns="http://www.w3.org/2000/svg" xmlns:xlink="http://www.w3.org/1999/xlink" x="0px" y="0px"
	 viewBox="0 0 2048 2048" style="enable-background:new 0 0 2048 2048;" xml:space="preserve">
<path d="M1185.83,636.651l-0.002,525.568l-201.729,0.009l0.268,107.08c0.025,9.925,8.078,17.958,18.003,17.958h20.073
	c68.589,0,124.091,55.498,124.091,124.083H957.198c-52.828,0-95.668-42.799-95.719-95.627l-0.206-277.568h200.465V760.74h-55.422
	l0,0c-9.629,0-17.435,7.806-17.435,17.435v83.066c0,56.726-45.985,102.711-102.711,102.711h0V761.591
	c0-68.333,55.228-123.816,123.56-124.13L1185.83,636.651z"/>
<circle cx="1124.681" cy="1242.153" r="62.046"/>
</svg>
