<?xml version="1.0" encoding="iso-8859-1"?>
<!-- Generator: Adobe Illustrator 22.1.0, SVG Export Plug-In . SVG Version: 6.00 Build 0)  -->
<svg version="1.1" id="Layer_1" xmlns="http://www.w3.org/2000/svg" xmlns:xlink="http://www.w3.org/1999/xlink" x="0px" y="0px"
	 viewBox="0 0 2048 2048" style="enable-background:new 0 0 2048 2048;" xml:space="preserve">
<path d="M1124.539,1049.951c-40.365-84.745-67.877-105.738-106.943-147.439c30.903-17.693,65.1-37.796,84.297-55.864
	c19.197-18.068,15.96-57.727,15.96-57.727l-175.969,96.074v30.802c50.889,48.698,83.725,78.688,104.524,134.155H912.444v0
	c0,38.172,30.945,69.117,69.117,69.117h142.978V1049.951z"/>
<path d="M885.307,1047.714c-68.589,0-124.091,55.498-124.091,124.083v153.325c0,68.585,55.502,124.083,124.091,124.083
	l401.476-0.019l0.002-850.394c-68.589,0-124.091,55.498-124.091,124.083v602.246H885.289L885.307,1047.714z"/>
</svg>
