<?xml version="1.0" encoding="iso-8859-1"?>
<!-- Generator: Adobe Illustrator 22.1.0, SVG Export Plug-In . SVG Version: 6.00 Build 0)  -->
<svg version="1.1" id="Layer_1" xmlns="http://www.w3.org/2000/svg" xmlns:xlink="http://www.w3.org/1999/xlink" x="0px" y="0px"
	 viewBox="0 0 2048 2048" style="enable-background:new 0 0 2048 2048;" xml:space="preserve">
<path d="M1186.432,1349.93c0,89.709-72.724,162.433-162.433,162.433h0h0c-89.709,0-162.433-72.724-162.433-162.433v-207.389
	l74.688-74.687l-74.688-74.688V786.071c0-68.585,55.502-124.083,124.091-124.083l-0.002,279.832l38.344,38.289l38.344-38.289
	V659.721c0-68.585,55.502-124.083,124.091-124.083v457.527l-74.69,74.69l73.634,75.255L1186.432,1349.93z M1062.343,1193.943
	L1024,1155.598l-38.345,38.345v155.787c0,21.177,17.167,38.344,38.344,38.344h0l0,0c21.177,0,38.344-17.167,38.344-38.344V1193.943z
	"/>
</svg>
