<?xml version="1.0" encoding="iso-8859-1"?>
<!-- Generator: Adobe Illustrator 22.1.0, SVG Export Plug-In . SVG Version: 6.00 Build 0)  -->
<svg version="1.1" id="Layer_1" xmlns="http://www.w3.org/2000/svg" xmlns:xlink="http://www.w3.org/1999/xlink" x="0px" y="0px"
	 viewBox="0 0 2048 2048" style="enable-background:new 0 0 2048 2048;" xml:space="preserve">
<path d="M1197.769,1360.75l-439.342-673.5h94.632l439.342,673.5H1197.769z"/>
<path d="M1362.927,856.24c0,86.305-69.964,156.268-156.268,156.268S1050.39,942.544,1050.39,856.24s69.964-156.268,156.268-156.268
	S1362.927,769.935,1362.927,856.24z M1206.659,758.304c-54.088,0-97.936,43.847-97.936,97.936s43.847,97.936,97.936,97.936
	c54.088,0,97.936-43.847,97.936-97.936S1260.747,758.304,1206.659,758.304z"/>
<path d="M997.61,1204.482c0,86.305-69.964,156.268-156.268,156.268s-156.268-69.964-156.268-156.268s69.964-156.268,156.268-156.268
	S997.61,1118.177,997.61,1204.482z M841.341,1106.546c-54.088,0-97.936,43.847-97.936,97.936c0,54.088,43.847,97.936,97.936,97.936
	s97.936-43.847,97.936-97.936C939.277,1150.393,895.43,1106.546,841.341,1106.546z"/>
</svg>
