<?xml version="1.0" encoding="iso-8859-1"?>
<!-- Generator: Adobe Illustrator 22.1.0, SVG Export Plug-In . SVG Version: 6.00 Build 0)  -->
<svg version="1.1" id="Layer_1" xmlns="http://www.w3.org/2000/svg" xmlns:xlink="http://www.w3.org/1999/xlink" x="0px" y="0px"
	 viewBox="0 0 2048 2048" style="enable-background:new 0 0 2048 2048;" xml:space="preserve">
<path d="M1167.497,871.463c-14.928-80.778-66.156-141.39-148.618-141.39c-86.268,0-128.758,36.814-128.758,111.806
	c0,51.812,24.464,80.445,119.745,141.802c124.897,80.445,124.897,111.806,124.897,189.524v30.51H986.69
	c0-59.313-11.588-67.324-83.694-121.864c-75.968-58.629-119.746-92.716-131.333-104.987
	c-39.915-42.268-60.517-94.081-60.517-155.437c0-144.529,117.17-231.792,292.282-231.792c173.825,0,278.058,59.664,333.425,223.282
	 M1141.026,1299.902H976.65v158.464h164.376V1299.902z"/>
</svg>
