<?xml version="1.0" encoding="iso-8859-1"?>
<!-- Generator: Adobe Illustrator 22.1.0, SVG Export Plug-In . SVG Version: 6.00 Build 0)  -->
<svg version="1.1" id="Layer_1" xmlns="http://www.w3.org/2000/svg" xmlns:xlink="http://www.w3.org/1999/xlink" x="0px" y="0px"
	 viewBox="0 0 2048 2048" style="enable-background:new 0 0 2048 2048;" xml:space="preserve">
<path d="M961.955,1219.943c0,21.112-16.517,39.222-37.625,39.609c-21.505,0.394-39.062-16.921-39.062-38.337l-0.04-348.292h0
	c-68.511,0-124.05,55.539-124.05,124.05v224.444c0,89.709,72.724,162.433,162.433,162.433h0h0
	c76.484,0,140.621-52.862,157.87-124.043l205.34-0.003V734.235h-92.998c-68.589,0-124.091,55.498-124.091,124.083l93,0.006v277.414
	h-76.687l0.002-471.587c-68.59,0-124.091,55.498-124.091,124.083L961.955,1219.943z"/>
</svg>
