<?xml version="1.0" encoding="iso-8859-1"?>
<!-- Generator: Adobe Illustrator 22.1.0, SVG Export Plug-In . SVG Version: 6.00 Build 0)  -->
<svg version="1.1" id="Layer_1" xmlns="http://www.w3.org/2000/svg" xmlns:xlink="http://www.w3.org/1999/xlink" x="0px" y="0px"
	 viewBox="0 0 2048 2048" style="enable-background:new 0 0 2048 2048;" xml:space="preserve">
<path d="M1362.29,1224.742l0.002-525.568c-68.589,0-124.091,55.498-124.091,124.083v277.42l-50.753-0.012V702.45
	c-68.589,0-124.091,55.498-124.091,124.083v274.132l-52.851,0.04l-0.327-401.541h0c-68.315,0.005-123.693,55.387-123.693,123.702
	v362.062c0,21.112-16.517,39.222-37.625,39.609c-21.505,0.394-39.062-16.921-39.062-38.337l-0.04-348.292h0
	c-68.511,0-124.05,55.539-124.05,124.05v224.444c0,89.709,72.724,162.433,162.433,162.433h0h0
	c76.501,0,140.649-52.885,157.881-124.09L1362.29,1224.742z"/>
</svg>
