<?xml version="1.0" encoding="iso-8859-1"?>
<!-- Generator: Adobe Illustrator 22.1.0, SVG Export Plug-In . SVG Version: 6.00 Build 0)  -->
<svg version="1.1" id="Layer_1" xmlns="http://www.w3.org/2000/svg" xmlns:xlink="http://www.w3.org/1999/xlink" x="0px" y="0px"
	 viewBox="0 0 2048 2048" style="enable-background:new 0 0 2048 2048;" xml:space="preserve">
<path d="M1113.519,951.514l-32.959,7.07c0,0,10.307,47.125,11.94,57.969c1.632,10.844-1.035,32.122-29.268,26.587
	c-12.808-2.511-14.805-12.675-17.147-19.9c-2.342-7.224-12.507-55.073-12.507-55.073l-33.101,7.794l13.089,55.939
	c1.655,6.786,0.549,35.439-29.835,29.482c-9.192-1.802-15.373-9.779-16.707-18.31s-13.25-56.527-13.25-56.527l-33.38,6.792
	l14.707,63.022c0,0,5.859,31.469,44.95,39.132c27.005,5.294,53.379-11.638,59.535-24.715c2.998,2.175,9.236,4.87,17.7,6.529
	c13.755,2.697,60.34,2.809,68.997-41.35c2.754-14.049,0.354-20.979,0.354-20.979L1113.519,951.514z"/>
</svg>
