<?xml version="1.0" encoding="iso-8859-1"?>
<!-- Generator: Adobe Illustrator 22.1.0, SVG Export Plug-In . SVG Version: 6.00 Build 0)  -->
<svg version="1.1" id="Layer_1" xmlns="http://www.w3.org/2000/svg" xmlns:xlink="http://www.w3.org/1999/xlink" x="0px" y="0px"
	 viewBox="0 0 2048 2048" style="enable-background:new 0 0 2048 2048;" xml:space="preserve">
<path d="M1055.095,966.07l30.27-29.97c0,0-4.32-10.23-23.79-10.23c-19.44,0-68.73,39.57-79.77,49.29
	c-8.37,7.38-17.16,17.43-20.88,32.43c-1.56,4.65-2.4,9.18-2.4,13.38c0,29.82,17.52,51.24,34.38,60.96l-30.27,29.97
	c0,0,4.35,10.23,23.79,10.23c19.47,0,68.76-39.54,79.77-49.29c8.46-7.44,17.34-17.58,21-32.76c1.5-4.53,2.28-8.94,2.28-13.05
	C1089.475,997.21,1071.955,975.79,1055.095,966.07z M1046.2,1046.71c-0.21,0.21-0.42,0.39-0.63,0.6c-5.7,5.4-13.38,8.7-21.84,8.7
	c-17.55,0-31.77-14.22-31.77-31.77c0-9.03,3.75-17.19,9.81-22.95c0.21-0.21,0.42-0.42,0.63-0.6c5.7-5.4,13.35-8.7,21.84-8.7
	c17.55,0,31.8,14.22,31.8,31.77C1056.04,1032.79,1052.26,1040.95,1046.2,1046.71z"/>
</svg>
